<svg xmlns="http://www.w3.org/2000/svg" width="25" height="25" viewBox="0 0 25 25" fill="none">
  <path fill-rule="evenodd" clip-rule="evenodd" d="M6.79176 2.00081C6.8036 2.00027 6.81545 2 6.82729 2C9.76421 2 11.5778 3.75386 12.5 5.00738C13.4222 3.75386 15.2358 2 18.1727 2C18.1846 2 18.1964 2.00027 18.2082 2.00081C20.7323 2.11551 24.1514 4.28105 23.9948 9.05889C23.9917 10.0943 23.6392 11.2453 23.0712 12.3995C22.4958 13.5685 21.6744 14.7911 20.6772 15.9769C18.6857 18.3449 15.9433 20.6244 12.9242 22.0644L12.9242 22.0644C12.7857 22.1304 12.6402 22.1564 12.5 22.149C12.3598 22.1564 12.2143 22.1304 12.0758 22.0644L12.0758 22.0644C9.05665 20.6244 6.31433 18.3449 4.32284 15.9769C3.32559 14.7911 2.50424 13.5685 1.92885 12.3995C1.36076 11.2453 1.00827 10.0943 1.00519 9.05887C0.848627 4.28104 4.26771 2.11551 6.79176 2.00081ZM6.84542 3.56563C5.06648 3.65575 2.44038 5.20704 2.57032 9.01851C2.57062 9.0274 2.57077 9.03629 2.57077 9.04518C2.57077 9.7536 2.81964 10.664 3.33352 11.7081C3.8426 12.7424 4.58823 13.86 5.52104 14.9692C7.33377 17.1247 9.80661 19.1931 12.5 20.5297C15.1934 19.1931 17.6662 17.1247 19.479 14.9692C20.4118 13.86 21.1574 12.7424 21.6665 11.7081C22.1804 10.664 22.4292 9.7536 22.4292 9.04518C22.4292 9.03629 22.4294 9.0274 22.4297 9.01851C22.5596 5.20704 19.9335 3.65576 18.1546 3.56563C15.008 3.57586 13.4947 6.24618 13.2014 6.83796C13.0693 7.10453 12.7975 7.27318 12.5 7.27318C12.2025 7.27318 11.9307 7.10453 11.7986 6.83796C11.5053 6.24618 9.99201 3.57586 6.84542 3.56563ZM12.2503 20.6512C12.2505 20.6511 12.2508 20.651 12.2511 20.6508C12.2508 20.651 12.2505 20.6511 12.2503 20.6512ZM12.7489 20.6508C12.7492 20.651 12.7495 20.6511 12.7497 20.6512C12.7495 20.6511 12.7492 20.651 12.7489 20.6508Z" fill="#140028"/>
</svg>