<svg width="24" height="24" viewBox="0 0 24 24" fill="none" xmlns="http://www.w3.org/2000/svg">
<g clip-path="url(#clip0_1452_5308)">
<path d="M17.8127 12C17.8136 13.3678 17.3318 14.6921 16.452 15.7395C15.5723 16.787 14.3512 17.4903 13.0037 17.7257C11.6563 17.9611 10.269 17.7134 9.08632 17.0262C7.90361 16.3391 7.00134 15.2566 6.53847 13.9694L3.21387 16.6291C4.24763 18.5942 5.91002 20.1563 7.93559 21.0659C9.96117 21.9755 12.2331 22.1802 14.3886 21.6473C16.5442 21.1144 18.459 19.8746 19.8274 18.1259C21.1957 16.3772 21.9387 14.2204 21.9377 12" fill="#00AC47"/>
<path d="M17.8127 12C17.812 12.9248 17.5903 13.8359 17.1661 14.6577C16.7419 15.4794 16.1275 16.1878 15.374 16.724L18.6608 19.3534C19.6915 18.4255 20.5157 17.2915 21.0802 16.0247C21.6447 14.758 21.9368 13.3868 21.9377 12" fill="#4285F4"/>
<path d="M6.1875 11.9999C6.18894 11.328 6.30764 10.6616 6.53827 10.0305L3.21367 7.37085C2.45774 8.79673 2.0625 10.3861 2.0625 11.9999C2.0625 13.6138 2.45774 15.2031 3.21367 16.629L6.53827 13.9693C6.30764 13.3383 6.18894 12.6718 6.1875 11.9999Z" fill="#FFBA00"/>
<path d="M12.0002 6.18751C13.2301 6.18785 14.4277 6.58088 15.4187 7.30936L18.4637 4.46738C17.3333 3.4928 15.9975 2.78608 14.5558 2.39995C13.1142 2.01382 11.6039 1.95826 10.1378 2.23741C8.67164 2.51656 7.28747 3.12322 6.08857 4.01211C4.88967 4.901 3.90699 6.04916 3.21387 7.37093L6.53847 10.0306C6.94393 8.90661 7.68568 7.93477 8.66288 7.24717C9.64008 6.55957 10.8053 6.18959 12.0002 6.18751Z" fill="#EA4435"/>
<path d="M21.9375 11.25V12L20.25 14.625H12.375V10.5H21.1875C21.3864 10.5 21.5772 10.579 21.7178 10.7197C21.8585 10.8603 21.9375 11.0511 21.9375 11.25Z" fill="#4285F4"/>
</g>
<defs>
<clipPath id="clip0_1452_5308">
<rect width="24" height="24" fill="white"/>
</clipPath>
</defs>
</svg>
