<svg width="390" height="439" viewBox="0 0 390 439" fill="none" xmlns="http://www.w3.org/2000/svg">
  <path d="M0 438.056C15.2153 418.954 24.942 354.016 34.6002 289.536C45.9035 214.072 57.1129 139.235 76.9167 139.235C96.0458 139.235 99.1846 189.26 102.662 244.674C106.978 313.469 111.816 390.568 148.417 390.568C169.014 390.568 174.086 343.852 178.476 303.422C181.824 272.583 184.776 245.402 193.917 245.402C210.15 245.402 214.506 268.207 219.276 293.183C224.693 321.542 230.644 352.699 255.125 356.443C282.062 360.563 284.34 299.234 286.256 247.629C287.616 211.028 288.794 179.318 298.458 179.318C313.983 179.318 318.926 210.443 324.007 242.434C329.208 275.182 334.553 308.839 351.542 310.943C366.939 312.851 379.793 265.607 390 203.613V-1.05664H2.15253e-05L0 438.056Z" fill="#BFB0BE"/>
</svg>
