<svg width="169" height="110" viewBox="0 0 169 110" fill="none" xmlns="http://www.w3.org/2000/svg">
<path d="M71.3231 110C68.1176 110 65.533 109.002 63.5694 107.006C61.6226 105.009 60.6492 102.216 60.6492 98.6262V78.1934C60.6492 73.8988 61.4967 70.6107 63.1918 68.3292C64.9037 66.0477 67.6812 64.907 71.5245 64.907C73.6224 64.907 75.4853 65.2928 77.1133 66.0645C78.758 66.8362 80.0503 67.9937 80.9901 69.5371C81.93 71.0637 82.3999 72.9929 82.3999 75.3247V82.9744H73.5888V76.4319C73.5888 75.1066 73.421 74.2175 73.0853 73.7646C72.7497 73.2948 72.2294 73.06 71.5245 73.06C70.7022 73.06 70.1483 73.362 69.863 73.9659C69.5777 74.553 69.4351 75.3415 69.4351 76.3313V98.5004C69.4351 99.725 69.6113 100.589 69.9637 101.092C70.3329 101.596 70.8532 101.847 71.5245 101.847C72.2798 101.847 72.8084 101.537 73.1105 100.916C73.4294 100.295 73.5888 99.4902 73.5888 98.5004V90.5235H82.5006V98.903C82.5006 102.795 81.5188 105.622 79.5552 107.383C77.5916 109.128 74.8476 110 71.3231 110Z" fill="#C19BFF"/>
<path d="M85.4712 109.598V70.3423H94.2822V84.283H98.4612V70.3423H107.272V109.598H98.4612V92.6624H94.2822V109.598H85.4712Z" fill="#C19BFF"/>
<path d="M110.797 109.598V70.3423H119.356V109.598H110.797Z" fill="#C19BFF"/>
<path d="M122.88 109.598V70.3423H136.223C138.489 70.3423 140.217 70.8204 141.409 71.7766C142.617 72.7329 143.44 74.0498 143.876 75.7273C144.312 77.3881 144.53 79.2922 144.53 81.4395C144.53 84.1404 144.161 86.2793 143.423 87.8562C142.684 89.4331 141.493 90.5151 139.848 91.1023C141.342 91.3371 142.399 92.0082 143.02 93.1154C143.658 94.2226 143.977 95.6821 143.977 97.4938V109.598H135.191V96.9151C135.191 95.6233 134.922 94.8265 134.385 94.5245C133.865 94.2058 133.017 94.0464 131.842 94.0464V109.598H122.88ZM131.893 86.3715H134.033C135.258 86.3715 135.87 85.063 135.87 82.446C135.87 80.8691 135.736 79.829 135.468 79.3257C135.199 78.8057 134.696 78.5457 133.957 78.5457H131.893V86.3715Z" fill="#C19BFF"/>
<path d="M147.451 109.598V70.3423H158.653C161.104 70.3423 163.084 70.8791 164.594 71.9528C166.122 73.0264 167.238 74.5279 167.943 76.4571C168.648 78.3695 169 80.6175 169 83.2009C169 85.6837 168.698 87.873 168.094 89.7686C167.49 91.6643 166.474 93.1489 165.048 94.2226C163.638 95.2962 161.708 95.833 159.257 95.833H156.161V109.598H147.451ZM156.161 87.8813H156.665C158.309 87.8813 159.316 87.4452 159.685 86.5728C160.055 85.7005 160.239 84.5262 160.239 83.0499C160.239 81.6911 160.055 80.5839 159.685 79.7283C159.333 78.856 158.485 78.4198 157.143 78.4198H156.161V87.8813Z" fill="#C19BFF"/>
<path d="M6.90533 1.89429C6.8931 1.9064 6.88087 1.91853 6.86865 1.93067C6.85643 1.94281 6.84423 1.95495 6.83203 1.96711L6.90533 1.89429Z" fill="#C19BFF"/>
<path d="M11.8938 61.6624C29.7197 79.6987 56.3712 82.1985 71.4217 67.2458C86.4722 52.2932 84.2224 25.5504 66.3966 7.51414L11.8938 61.6624Z" fill="#C19BFF"/>
<path d="M14.8761 12.8828C14.8618 12.8969 14.8476 12.911 14.8333 12.9252C14.8191 12.9393 14.8048 12.9535 14.7906 12.9677L14.8761 12.8828Z" fill="#C19BFF"/>
<path d="M12.4391 61.1097C25.0546 73.874 46.5802 72.9963 60.518 59.1492C74.4557 45.3021 75.5277 23.7292 62.9122 10.9648L12.4391 61.1097Z" fill="#C19BFF"/>
<path d="M16.2367 57.2515C17.6022 55.9294 19.778 55.9675 21.0966 57.3365C22.4152 58.7055 22.3773 60.8871 21.0118 62.2091L10.8355 72.0619C9.47001 73.384 7.29416 73.3459 5.97556 71.9769C4.65696 70.6079 4.69494 68.4263 6.06039 67.1043L16.2367 57.2515Z" fill="#C19BFF"/>
<path d="M16.5953 56.3175C18.4542 55.9321 20.2727 57.1305 20.6571 58.9942C21.0415 60.8579 19.8462 62.6812 17.9874 63.0666L4.13372 65.939C2.27485 66.3244 0.45632 65.126 0.0719043 63.2623C-0.312511 61.3986 0.882767 59.5753 2.74163 59.1899L16.5953 56.3175Z" fill="#C19BFF"/>
<path d="M84.4879 21.7145C84.4879 33.7071 74.7913 43.429 62.8299 43.429C50.8685 43.429 41.1719 33.7071 41.1719 21.7145C41.1719 9.72192 50.8685 0 62.8299 0C74.7913 0 84.4879 9.72192 84.4879 21.7145Z" fill="#C19BFF"/>
<path d="M27.5506 18.3181C26.18 17.5447 26.7401 15.4491 28.3127 15.4664L53.9498 15.7489C54.9422 15.7598 55.6581 16.7059 55.4012 17.667L52.1073 29.9919C51.8505 30.953 50.7587 31.4135 49.8938 30.9255L27.5506 18.3181Z" fill="#C19BFF"/>
</svg>
